<?xml version="1.0" encoding="UTF-8"?>
<svg xmlns="http://www.w3.org/2000/svg" id="Layer_1" data-name="Layer 1" viewBox="0 0 24 24" width="24" height="24">
  <path d="m11.269,9.645l6.481-6.481,3.086,3.086-6.481,6.481c-.813.813-1.915,1.269-3.064,1.269h-.791c-.276,0-.5-.224-.5-.5v-.791c0-1.149.456-2.251,1.269-3.064ZM23.361.639c-.852-.852-2.234-.852-3.086,0l-1.111,1.111,3.086,3.086,1.111-1.111c.852-.852.852-2.234,0-3.086Zm-1.539,15.366l-.536-.314c.456-1.144.715-2.387.715-3.691,0-.386-.023-.781-.068-1.173-.096-.823-.843-1.414-1.663-1.317-.823.096-1.413.84-1.317,1.663.031.271.049.548.049.827,0,3.859-3.141,7-7,7s-7-3.141-7-7,3.141-7,7-7c.278,0,.553.016.822.048.827.111,1.569-.489,1.667-1.312.085-.711-.342-1.361-.989-1.59v-.647c0-.828-.672-1.5-1.5-1.5s-1.5.672-1.5,1.5v.625c-2.52.382-4.735,1.698-6.271,3.594l-.537-.314c-.71-.415-1.632-.178-2.052.538-.418.715-.178,1.634.538,2.052l.536.314c-.456,1.144-.715,2.387-.715,3.691s.258,2.548.715,3.691l-.536.314c-.716.418-.956,1.337-.538,2.052.279.478.781.743,1.296.743.258,0,.519-.066.756-.205l.537-.314c1.536,1.896,3.751,3.212,6.271,3.594v.625c0,.828.672,1.5,1.5,1.5s1.5-.672,1.5-1.5v-.625c2.52-.382,4.735-1.698,6.271-3.594l.537.314c.237.139.498.205.756.205.515,0,1.017-.266,1.296-.743.418-.715.178-1.634-.538-2.052Z"/>
</svg>
