<?xml version="1.0" encoding="UTF-8"?>
<svg xmlns="http://www.w3.org/2000/svg" id="Layer_1" data-name="Layer 1" viewBox="0 0 24 24" width="24" height="24">
  <path d="m23.268.716c-.975-.975-2.561-.976-3.535,0l-1.592,1.595s-.008.004-.011.007c-.003.003-.004.008-.007.011l-5.804,5.817c-.838.838-1.318,1.997-1.318,3.182v1.172c0,.276.224.5.5.5h1.172c1.185,0,2.344-.48,3.182-1.318l7.414-7.431c.473-.473.732-1.101.732-1.768s-.26-1.296-.732-1.768Zm-8.121,10.259c-.651.651-1.554,1.025-2.475,1.025h-.672v-.672c0-.921.374-1.823,1.025-2.475l5.46-5.472,2.121,2.121-5.46,5.472Zm7.414-7.431l-1.248,1.25-2.121-2.121,1.248-1.25c.584-.584,1.537-.584,2.121,0,.283.283.439.659.439,1.061s-.156.777-.439,1.061Zm.115,12.47c.179.644.096,1.318-.234,1.899-.328.581-.864.999-1.508,1.178-.645.178-1.317.096-1.899-.235l-.751-.425c-1.063,1.041-2.358,1.796-3.783,2.208v.861c0,1.379-1.121,2.5-2.5,2.5s-2.5-1.121-2.5-2.5v-.861c-1.425-.412-2.72-1.167-3.783-2.208l-.752.426c-.582.33-1.258.409-1.898.234-.644-.179-1.18-.597-1.509-1.179-.329-.58-.412-1.255-.233-1.898.178-.644.597-1.18,1.178-1.509l.748-.423c-.166-.691-.25-1.391-.25-2.082s.084-1.391.25-2.082l-.748-.423c-.581-.33-1-.865-1.178-1.509-.179-.644-.096-1.318.234-1.899.328-.581.864-.999,1.508-1.178.645-.176,1.317-.096,1.899.235l.751.425c1.063-1.041,2.358-1.796,3.783-2.208v-.861c0-1.379,1.121-2.5,2.5-2.5s2.5,1.121,2.5,2.5v1c0,.276-.224.5-.5.5s-.5-.224-.5-.5v-1c0-.827-.673-1.5-1.5-1.5s-1.5.673-1.5,1.5v1.246c0,.23-.158.432-.383.486-1.513.366-2.878,1.162-3.947,2.303-.159.168-.41.205-.611.094l-1.086-.614c-.349-.198-.754-.246-1.14-.142-.386.107-.707.358-.904.707-.198.349-.248.753-.141,1.139.106.387.357.708.707.906l1.082.612c.201.114.298.351.234.572-.207.727-.312,1.464-.312,2.19s.104,1.464.312,2.19c.063.222-.033.458-.234.572l-1.083.613c-.349.197-.6.519-.706.904-.107.387-.058.791.14,1.139.198.35.52.601.905.708.386.106.79.057,1.139-.141l1.087-.615c.202-.11.453-.074.611.094,1.069,1.141,2.435,1.937,3.947,2.303.225.055.383.256.383.486v1.246c0,.827.673,1.5,1.5,1.5s1.5-.673,1.5-1.5v-1.246c0-.23.158-.432.383-.486,1.513-.366,2.878-1.162,3.947-2.303.158-.169.409-.206.611-.094l1.086.614c.35.198.755.248,1.14.142.386-.107.707-.358.904-.707.198-.349.248-.753.141-1.14-.106-.386-.357-.707-.706-.904l-1.083-.613c-.201-.114-.298-.351-.234-.572.207-.727.312-1.464.312-2.19,0-.471-.044-.944-.129-1.409-.051-.271.129-.532.4-.582.267-.054.532.128.582.4.098.524.146,1.06.146,1.591,0,.691-.084,1.391-.25,2.082l.748.423c.581.329,1,.865,1.178,1.509Zm-14.398-5.48c-.444,1.128-.349,2.402.269,3.59.294.564.767,1.037,1.331,1.331,1.187.617,2.461.712,3.59.269,1.079-.426,1.92-1.297,2.306-2.39.094-.26.379-.396.639-.305.26.093.396.378.305.639-.483,1.366-1.534,2.454-2.883,2.985-.587.232-1.204.347-1.829.347-.866,0-1.747-.221-2.588-.658-.746-.387-1.37-1.011-1.757-1.757-.754-1.447-.864-3.017-.312-4.417.531-1.349,1.619-2.399,2.985-2.883.261-.093.545.044.639.305.092.261-.045.546-.305.639-1.093.386-1.964,1.227-2.39,2.306Z"/>
</svg>
